# xmcd
#
# Track frame offsets:
#	150
#	17685
#	29046
#	43859
#	58246
#	78981
#	92081
#	106678
#	119158
#	133195
#	146810
#	163275
#
# Disc length: 2406 seconds
#
# Revision: 1
# Processed by: cddbd v1.5.2PL0 Copyright (c) Steve Scherf et al.
# Submitted via: audiograbber 1.83.01
#
DISCID=b209640c
DTITLE=Jimmy Regal and the Royals - Jimmy Regal and the Royals
DYEAR=2017
DGENRE=Blues
TTITLE0=Go to the Mardi Gras
TTITLE1=Diddy Wah Diddy
TTITLE2=Look Out
TTITLE3=Lil' Liza Jane
TTITLE4=Last Night
TTITLE5=Pretty Thing
TTITLE6=Just Because
TTITLE7=Junco Partner
TTITLE8=Royal Charter
TTITLE9=You Better Watch Yourself
TTITLE10=Mellow Down Easy
TTITLE11=Burn It Down
EXTD=Debut album from a hard-hitting and barnstorming blues trio, harmonica, gu
EXTD=itar and drums. 
EXTT0=
EXTT1=
EXTT2=Written by Corin Williams.
EXTT3=
EXTT4=
EXTT5=
EXTT6=
EXTT7=
EXTT8=Written by Joff Watkins.
EXTT9=
EXTT10=
EXTT11=Written by Corin Williams.
PLAYORDER=
